<svg width="194" height="62" viewBox="0 0 194 62" fill="none" xmlns="http://www.w3.org/2000/svg">
<path d="M114.314 47.2976H118.615V48.7687H117.197V55.1383H115.695V48.7687H114.314V47.2976Z" fill="#6A6E71"/>
<path d="M125.346 52.6598H120.707C120.774 53.072 120.952 53.4007 121.241 53.6459C121.534 53.8875 121.906 54.0083 122.357 54.0083C122.897 54.0083 123.36 53.8182 123.748 53.438L124.965 54.0137C124.662 54.4472 124.298 54.7688 123.875 54.9784C123.452 55.1845 122.95 55.2876 122.368 55.2876C121.465 55.2876 120.73 55.0015 120.162 54.4294C119.594 53.8538 119.31 53.1342 119.31 52.2707C119.31 51.3859 119.592 50.6521 120.157 50.0693C120.724 49.483 121.435 49.1898 122.288 49.1898C123.195 49.1898 123.932 49.483 124.499 50.0693C125.067 50.6521 125.351 51.4232 125.351 52.3826L125.346 52.6598ZM123.896 51.5138C123.801 51.1904 123.613 50.9275 123.33 50.7249C123.052 50.5224 122.727 50.4211 122.357 50.4211C121.955 50.4211 121.602 50.5348 121.299 50.7622C121.109 50.9044 120.932 51.1549 120.77 51.5138H123.896Z" fill="#6A6E71"/>
<path d="M132.262 50.5117L131.061 51.178C130.836 50.9399 130.612 50.7747 130.389 50.6823C130.171 50.5899 129.913 50.5437 129.617 50.5437C129.078 50.5437 128.64 50.7071 128.305 51.0341C127.974 51.3574 127.808 51.7732 127.808 52.2813C127.808 52.7753 127.968 53.1786 128.289 53.4913C128.61 53.804 129.032 53.9604 129.554 53.9604C130.199 53.9604 130.702 53.7383 131.061 53.2941L132.199 54.0776C131.581 54.8843 130.71 55.2876 129.585 55.2876C128.573 55.2876 127.78 54.9855 127.205 54.3814C126.634 53.7774 126.348 53.0702 126.348 52.26C126.348 51.6986 126.487 51.1815 126.766 50.7089C127.045 50.2363 127.432 49.865 127.93 49.5949C128.43 49.3248 128.989 49.1898 129.607 49.1898C130.178 49.1898 130.691 49.3053 131.146 49.5363C131.601 49.7637 131.973 50.0888 132.262 50.5117Z" fill="#6A6E71"/>
<path d="M133.682 47.1004H135.116V49.9254C135.398 49.6802 135.682 49.4972 135.967 49.3764C136.253 49.252 136.542 49.1898 136.835 49.1898C137.406 49.1898 137.888 49.3888 138.279 49.7868C138.614 50.1315 138.781 50.6379 138.781 51.3059V55.1383H137.359V52.5958C137.359 51.9242 137.327 51.4694 137.263 51.2313C137.2 50.9932 137.091 50.8155 136.935 50.6983C136.784 50.581 136.595 50.5224 136.369 50.5224C136.077 50.5224 135.825 50.6201 135.613 50.8155C135.405 51.011 135.26 51.2775 135.179 51.6151C135.137 51.7892 135.116 52.1872 135.116 52.809V55.1383H133.682V47.1004Z" fill="#6A6E71"/>
<path d="M140.292 49.3391H141.73V49.9307C142.058 49.6535 142.355 49.4617 142.619 49.3551C142.887 49.2449 143.16 49.1898 143.439 49.1898C144.01 49.1898 144.495 49.3906 144.894 49.7921C145.229 50.1333 145.396 50.6379 145.396 51.3059V55.1383H143.968V52.5958C143.968 51.9029 143.936 51.4427 143.873 51.2153C143.813 50.9879 143.705 50.8155 143.55 50.6983C143.398 50.5774 143.21 50.517 142.984 50.517C142.691 50.517 142.439 50.6165 142.228 50.8155C142.02 51.011 141.875 51.2828 141.794 51.6311C141.752 51.8123 141.73 52.2049 141.73 52.809V55.1383H140.292V49.3391Z" fill="#6A6E71"/>
<path d="M149.609 49.1898C150.152 49.1898 150.662 49.3266 151.138 49.6002C151.618 49.8739 151.991 50.2452 152.259 50.7143C152.527 51.1833 152.661 51.6897 152.661 52.2334C152.661 52.7806 152.526 53.2923 152.254 53.7685C151.986 54.2446 151.619 54.6177 151.154 54.8878C150.688 55.1543 150.175 55.2876 149.615 55.2876C148.789 55.2876 148.084 54.9926 147.499 54.4028C146.917 53.8093 146.626 53.0898 146.626 52.244C146.626 51.3379 146.956 50.5828 147.615 49.9787C148.193 49.4528 148.858 49.1898 149.609 49.1898ZM149.63 50.5597C149.183 50.5597 148.809 50.7178 148.509 51.0341C148.213 51.3468 148.065 51.7483 148.065 52.2387C148.065 52.7433 148.211 53.1519 148.504 53.4646C148.8 53.7774 149.174 53.9337 149.625 53.9337C150.077 53.9337 150.452 53.7756 150.752 53.4593C151.052 53.1431 151.202 52.7362 151.202 52.2387C151.202 51.7412 151.053 51.3379 150.757 51.0287C150.464 50.716 150.089 50.5597 149.63 50.5597Z" fill="#6A6E71"/>
<path d="M153.801 47.1004H155.245V55.1383H153.801V47.1004Z" fill="#6A6E71"/>
<path d="M159.369 49.1898C159.912 49.1898 160.421 49.3266 160.897 49.6002C161.377 49.8739 161.751 50.2452 162.019 50.7143C162.287 51.1833 162.421 51.6897 162.421 52.2334C162.421 52.7806 162.285 53.2923 162.014 53.7685C161.746 54.2446 161.379 54.6177 160.913 54.8878C160.448 55.1543 159.935 55.2876 159.374 55.2876C158.549 55.2876 157.843 54.9926 157.258 54.4028C156.676 53.8093 156.385 53.0898 156.385 52.244C156.385 51.3379 156.715 50.5828 157.374 49.9787C157.953 49.4528 158.618 49.1898 159.369 49.1898ZM159.39 50.5597C158.942 50.5597 158.568 50.7178 158.268 51.0341C157.972 51.3468 157.824 51.7483 157.824 52.2387C157.824 52.7433 157.97 53.1519 158.263 53.4646C158.559 53.7774 158.933 53.9337 159.385 53.9337C159.836 53.9337 160.211 53.7756 160.511 53.4593C160.811 53.1431 160.961 52.7362 160.961 52.2387C160.961 51.7412 160.813 51.3379 160.517 51.0287C160.224 50.716 159.848 50.5597 159.39 50.5597Z" fill="#6A6E71"/>
<path d="M167.967 49.3391H169.406V54.3068C169.406 55.2876 169.21 56.0089 168.819 56.4709C168.293 57.0963 167.502 57.409 166.444 57.409C165.879 57.409 165.405 57.3379 165.021 57.1958C164.636 57.0537 164.312 56.844 164.047 56.5668C163.783 56.2932 163.587 55.9592 163.46 55.5648H165.052C165.193 55.7282 165.375 55.8508 165.597 55.9325C165.819 56.0178 166.082 56.0605 166.385 56.0605C166.773 56.0605 167.085 56.0001 167.322 55.8792C167.558 55.7584 167.724 55.6021 167.819 55.4102C167.918 55.2183 167.967 54.8878 167.967 54.4188C167.713 54.6746 167.447 54.8594 167.168 54.9731C166.89 55.0833 166.574 55.1383 166.221 55.1383C165.449 55.1383 164.797 54.8576 164.264 54.2962C163.732 53.7347 163.465 53.024 163.465 52.1641C163.465 51.2437 163.748 50.5046 164.312 49.9467C164.823 49.4421 165.433 49.1898 166.142 49.1898C166.474 49.1898 166.786 49.252 167.078 49.3764C167.375 49.4972 167.671 49.698 167.967 49.9787V49.3391ZM166.47 50.549C166.015 50.549 165.64 50.7036 165.343 51.0127C165.047 51.3183 164.899 51.7039 164.899 52.1694C164.899 52.6527 165.051 53.0489 165.354 53.358C165.657 53.6672 166.038 53.8218 166.496 53.8218C166.944 53.8218 167.313 53.6707 167.602 53.3687C167.895 53.0667 168.041 52.6704 168.041 52.1801C168.041 51.6968 167.895 51.3041 167.602 51.0021C167.309 50.7 166.932 50.549 166.47 50.549Z" fill="#6A6E71"/>
<path d="M171.54 46.9511C171.794 46.9511 172.011 47.0435 172.191 47.2283C172.374 47.4131 172.466 47.6369 172.466 47.8999C172.466 48.1593 172.376 48.3814 172.196 48.5662C172.016 48.7474 171.801 48.838 171.551 48.838C171.293 48.838 171.073 48.7456 170.889 48.5609C170.71 48.3725 170.62 48.1451 170.62 47.8786C170.62 47.6227 170.71 47.4042 170.889 47.223C171.069 47.0417 171.286 46.9511 171.54 46.9511ZM170.815 49.3391H172.265V55.1383H170.815V49.3391Z" fill="#6A6E71"/>
<path d="M179.451 52.6598H174.812C174.879 53.072 175.057 53.4007 175.346 53.6459C175.639 53.8875 176.011 54.0083 176.462 54.0083C177.002 54.0083 177.465 53.8182 177.853 53.438L179.07 54.0137C178.767 54.4472 178.403 54.7688 177.98 54.9784C177.557 55.1845 177.055 55.2876 176.473 55.2876C175.57 55.2876 174.835 55.0015 174.267 54.4294C173.699 53.8538 173.415 53.1342 173.415 52.2707C173.415 51.3859 173.697 50.6521 174.262 50.0693C174.829 49.483 175.54 49.1898 176.393 49.1898C177.3 49.1898 178.037 49.483 178.604 50.0693C179.172 50.6521 179.456 51.4232 179.456 52.3826L179.451 52.6598ZM178.001 51.5138C177.906 51.1904 177.718 50.9275 177.435 50.7249C177.157 50.5224 176.832 50.4211 176.462 50.4211C176.06 50.4211 175.707 50.5348 175.404 50.7622C175.214 50.9044 175.037 51.1549 174.875 51.5138H178.001Z" fill="#6A6E71"/>
<path d="M184.256 50.1493L183.362 51.0501C182.999 50.6876 182.669 50.5064 182.373 50.5064C182.211 50.5064 182.084 50.5419 181.992 50.613C181.901 50.6805 181.855 50.7658 181.855 50.8688C181.855 50.947 181.883 51.0199 181.94 51.0874C181.999 51.1513 182.144 51.2402 182.373 51.3539L182.902 51.6204C183.459 51.8976 183.842 52.1801 184.05 52.4679C184.258 52.7557 184.362 53.0933 184.362 53.4806C184.362 53.9959 184.174 54.4259 183.796 54.7705C183.422 55.1152 182.92 55.2876 182.289 55.2876C181.449 55.2876 180.779 54.9571 180.279 54.2962L181.167 53.3207C181.336 53.5197 181.534 53.6814 181.76 53.8058C181.989 53.9266 182.192 53.987 182.368 53.987C182.558 53.987 182.712 53.9408 182.828 53.8484C182.945 53.756 183.003 53.6494 183.003 53.5286C183.003 53.3047 182.793 53.0862 182.373 52.873L181.887 52.6278C180.956 52.1552 180.49 51.5635 180.49 50.8528C180.49 50.3944 180.665 50.0036 181.014 49.6802C181.366 49.3533 181.816 49.1898 182.363 49.1898C182.736 49.1898 183.087 49.2733 183.415 49.4403C183.747 49.6038 184.027 49.8401 184.256 50.1493Z" fill="#6A6E71"/>
<path d="M25.4252 14.7036L46.2076 26.7337C48.1532 30.5656 43.8862 34.8281 41.2331 36.0906L16.3606 20.6073L25.4252 14.7036Z" fill="url(#paint0_linear)"/>
<path d="M43.6651 32.4147C46.7603 30.6324 46.3918 27.9219 46.2076 26.7337C49.745 29.6299 50.6745 32.9716 50.6073 35.2663C50.4525 40.5462 47.4236 42.8314 43.5545 45.1132C32.4166 51.6818 15.0341 62 15.0341 62V49.346L43.6651 32.4147Z" fill="url(#paint1_linear)"/>
<path d="M25.1854 47.2964L4.40298 35.2662C2.4574 31.4344 6.72442 27.1719 9.37749 25.9094L34.25 41.3927L25.1854 47.2964Z" fill="url(#paint2_linear)"/>
<path d="M6.94551 29.5853C3.85026 31.3676 4.21875 34.0781 4.40299 35.2663C0.865562 32.3701 -0.063942 29.0284 0.00331497 26.7337C0.158077 21.4538 3.187 19.1686 7.05606 16.8868C18.194 10.3182 35.5765 -7.62939e-06 35.5765 -7.62939e-06V12.654L6.94551 29.5853Z" fill="url(#paint3_linear)"/>
<path d="M179.966 33.4172C180.409 37.2045 184.941 36.2762 186.71 35.1994L188.478 39.4323C185.825 41.571 181.772 41.2888 180.077 40.8803C175.213 39.7219 173.997 35.5707 173.997 33.64V9.69098H179.966V15.5947H186.71V20.9414H179.966V33.4172Z" fill="#6A6E71"/>
<path d="M92.9494 30.0051H72.5942C72.8882 31.8137 73.6696 33.256 74.9384 34.3318C76.2227 35.392 77.8551 35.9222 79.8357 35.9222C82.2031 35.9222 84.2379 35.088 85.94 33.4197L91.2783 35.9455C89.9475 37.8477 88.3538 39.2588 86.497 40.1787C84.6402 41.083 82.4352 41.5352 79.8821 41.5352C75.921 41.5352 72.6948 40.2801 70.2036 37.7698C67.7123 35.2439 66.4667 32.0866 66.4667 28.2978C66.4667 24.4154 67.7046 21.1957 70.1803 18.6387C72.6716 16.066 75.7894 14.7797 79.534 14.7797C83.5106 14.7797 86.7446 16.066 89.2358 18.6387C91.727 21.1957 92.9726 24.5791 92.9726 28.7889L92.9494 30.0051ZM86.5898 24.9767C86.1721 23.5579 85.3442 22.4041 84.1064 21.5153C82.884 20.6266 81.4604 20.1823 79.8357 20.1823C78.0718 20.1823 76.5244 20.6812 75.1937 21.6791C74.3581 22.3027 73.5845 23.402 72.8727 24.9767H86.5898Z" fill="#6A6E71"/>
<path d="M125.758 11.1546L120.953 15.4346C119.267 13.0646 117.549 11.8796 115.801 11.8796C114.95 11.8796 114.253 12.1135 113.712 12.5813C113.17 13.0334 112.9 13.5479 112.9 14.1248C112.9 14.7017 113.093 15.2475 113.48 15.762C114.006 16.448 115.592 17.9214 118.238 20.1823C120.714 22.2716 122.214 23.5891 122.741 24.1348C124.056 25.4757 124.984 26.762 125.526 27.9937C126.083 29.2099 126.361 30.543 126.361 31.993C126.361 34.8151 125.394 37.1461 123.46 38.9859C121.526 40.8258 119.004 41.7457 115.894 41.7457C113.464 41.7457 111.344 41.1454 109.534 39.9448C107.739 38.7443 106.2 36.8577 104.915 34.285L110.37 30.964C112.01 34.0044 113.898 35.5246 116.033 35.5246C117.147 35.5246 118.083 35.1971 118.841 34.5423C119.599 33.8874 119.979 33.1312 119.979 32.2737C119.979 31.4941 119.692 30.7145 119.12 29.9349C118.547 29.1553 117.286 27.9626 115.337 26.3566C111.623 23.3006 109.225 20.9462 108.141 19.2935C107.058 17.6252 106.517 15.9647 106.517 14.3119C106.517 11.9264 107.414 9.88388 109.209 8.18438C111.02 6.46928 113.248 5.61173 115.894 5.61173C117.596 5.61173 119.213 6.00932 120.745 6.8045C122.292 7.59969 123.963 9.04972 125.758 11.1546Z" fill="#6A6E71"/>
<path d="M142.663 14.7797C145.046 14.7797 147.282 15.38 149.371 16.5806C151.476 17.7811 153.116 19.4105 154.292 21.4686C155.468 23.5267 156.056 25.7485 156.056 28.1341C156.056 30.5352 155.46 32.7804 154.268 34.8697C153.092 36.959 151.483 38.5961 149.441 39.7811C147.398 40.9505 145.147 41.5352 142.687 41.5352C139.066 41.5352 135.971 40.2411 133.403 37.6528C130.85 35.049 129.573 31.8917 129.573 28.1808C129.573 24.2049 131.02 20.8917 133.913 18.2411C136.451 15.9335 139.368 14.7797 142.663 14.7797ZM142.756 20.7903C140.791 20.7903 139.151 21.4842 137.836 22.8718C136.536 24.2439 135.886 26.0058 135.886 28.1574C135.886 30.3715 136.528 32.1645 137.813 33.5366C139.112 34.9087 140.752 35.5947 142.733 35.5947C144.714 35.5947 146.362 34.9009 147.677 33.5132C148.992 32.1256 149.65 30.3403 149.65 28.1574C149.65 25.9746 149 24.2049 147.7 22.8484C146.416 21.4764 144.768 20.7903 142.756 20.7903Z" fill="#6A6E71"/>
<path d="M157.132 15.4346H159.383C159.399 12.0979 159.453 10.1256 159.546 9.51747C159.716 8.11421 160.296 7.0072 161.287 6.19643C162.292 5.37006 163.708 4.95688 165.534 4.95688C166.849 4.95688 168.335 5.26092 169.99 5.869V10.7336C169.077 10.4686 168.327 10.336 167.739 10.336C166.996 10.336 166.455 10.492 166.114 10.8038C165.867 11.0377 165.743 11.521 165.743 12.2538L165.72 15.4346H169.735V20.8605H165.72V40.8803H159.383V20.8605H157.132V15.4346Z" fill="#6A6E71"/>
<path d="M194 10.0638C194 10.7625 193.826 11.4135 193.477 12.0168C193.132 12.6167 192.659 13.0922 192.057 13.4432C191.458 13.7909 190.81 13.9647 190.113 13.9647C189.42 13.9647 188.772 13.7909 188.17 13.4432C187.568 13.0922 187.093 12.6167 186.744 12.0168C186.399 11.4135 186.227 10.7608 186.227 10.0587C186.227 9.35993 186.399 8.70891 186.744 8.10562C187.093 7.50233 187.566 7.02685 188.165 6.67919C188.767 6.32812 189.417 6.15259 190.113 6.15259C190.81 6.15259 191.458 6.32812 192.057 6.67919C192.659 7.02685 193.132 7.50233 193.477 8.10562C193.826 8.70891 194 9.36163 194 10.0638ZM193.198 10.074C193.198 9.20825 192.897 8.47373 192.295 7.87044C191.697 7.26374 190.973 6.96039 190.124 6.96039C189.268 6.96039 188.537 7.26203 187.932 7.86533C187.33 8.46862 187.029 9.19632 187.029 10.0484C187.029 10.6006 187.164 11.1136 187.434 11.5873C187.708 12.0611 188.086 12.436 188.566 12.7121C189.046 12.9882 189.562 13.1262 190.113 13.1262C190.661 13.1262 191.176 12.9899 191.656 12.7172C192.136 12.4412 192.513 12.0679 192.787 11.5976C193.061 11.1238 193.198 10.6159 193.198 10.074ZM188.505 7.92668H190.387C190.783 7.92668 191.074 7.97099 191.26 8.05961C191.446 8.14823 191.595 8.28797 191.707 8.47885C191.822 8.66972 191.879 8.89979 191.879 9.16905C191.879 9.39742 191.844 9.58488 191.773 9.73145C191.705 9.8746 191.575 10.016 191.382 10.1558C191.538 10.2444 191.644 10.345 191.702 10.4574C191.759 10.5665 191.795 10.7608 191.808 11.0403C191.832 11.572 191.854 11.8822 191.874 11.9708C191.898 12.056 191.959 12.1378 192.057 12.2162H190.991C190.944 12.1003 190.913 12.0032 190.9 11.9248C190.886 11.8464 190.878 11.7117 190.875 11.5209C190.864 11.1425 190.844 10.9091 190.814 10.8204C190.783 10.7318 190.729 10.6654 190.651 10.621C190.577 10.5767 190.425 10.5546 190.195 10.5546H189.439V12.2162H188.505V7.92668ZM189.439 8.74982V9.76723H190.22C190.521 9.76723 190.721 9.72633 190.819 9.64453C190.917 9.56273 190.966 9.4315 190.966 9.25086C190.966 9.07021 190.917 8.94239 190.819 8.86741C190.724 8.78901 190.526 8.74982 190.225 8.74982H189.439Z" fill="#6A6E71"/>
<ellipse cx="98.7163" cy="37.5386" rx="3.53742" ry="3.5645" fill="url(#paint4_linear)"/>
<defs>
<linearGradient id="paint0_linear" x1="44.5494" y1="32.6374" x2="32.0374" y2="14.0119" gradientUnits="userSpaceOnUse">
<stop stop-color="#6A6E71" stop-opacity="0.89"/>
<stop offset="0.934066" stop-color="#747474" stop-opacity="0"/>
</linearGradient>
<linearGradient id="paint1_linear" x1="48.308" y1="29.1843" x2="14.675" y2="61.7882" gradientUnits="userSpaceOnUse">
<stop stop-color="#FCD520"/>
<stop offset="1" stop-color="#8B0400"/>
</linearGradient>
<linearGradient id="paint2_linear" x1="6.06115" y1="29.3625" x2="18.5732" y2="47.9881" gradientUnits="userSpaceOnUse">
<stop stop-color="#8D3109" stop-opacity="0.89"/>
<stop offset="0.934066" stop-color="#747474" stop-opacity="0"/>
</linearGradient>
<linearGradient id="paint3_linear" x1="2.30264" y1="32.8157" x2="35.9356" y2="0.211805" gradientUnits="userSpaceOnUse">
<stop stop-color="#8B0400"/>
<stop offset="1" stop-color="#FCD520"/>
</linearGradient>
<linearGradient id="paint4_linear" x1="98.7163" y1="33.9741" x2="98.7163" y2="41.1031" gradientUnits="userSpaceOnUse">
<stop stop-color="#FAD220"/>
<stop offset="1" stop-color="#8C0601"/>
</linearGradient>
</defs>
</svg>
