<svg width="1656" height="278" viewBox="0 0 1656 278" fill="none" xmlns="http://www.w3.org/2000/svg">
<path fill-rule="evenodd" clip-rule="evenodd" d="M604.974 154.902C583.688 154.979 566.258 147.845 552.684 133.5C539.11 119.155 532.324 100.53 532.324 77.6244C532.324 54.7188 539.265 36.055 553.147 21.633C567.029 7.21101 584.382 0 605.205 0C626.028 0 642.455 5.39862 654.487 16.1959C666.518 27.0702 673.15 42.1863 674.384 61.5442L654.718 62.7011C653.947 48.8189 649.242 37.7903 640.604 29.6153C631.967 21.4402 620.09 17.3913 604.974 17.4684C589.857 17.4684 577.441 22.9056 567.723 33.7799C558.16 44.6543 553.378 59.2691 553.378 77.6244C553.378 95.9797 558.314 110.556 568.186 121.353C578.058 132.15 590.474 137.549 605.436 137.549C620.398 137.549 632.275 133.616 641.067 125.749C649.782 117.883 654.757 107.432 655.991 94.3987H610.411V78.3185H674.616V152.01H655.991V125.518C652.828 134.695 646.543 141.906 637.134 147.151C627.725 152.395 617.005 154.979 604.974 154.902ZM407.269 75.4264H367.936V19.5507H407.269C419.608 19.6278 428.824 22.0958 434.917 26.9545C440.933 31.8133 443.941 38.6772 443.941 47.5464C443.941 66.1331 431.717 75.4264 407.269 75.4264ZM367.936 152.01V91.8536H410.161C428.439 91.7765 438.118 100.993 439.198 119.502C440.354 137.086 442.437 147.922 445.444 152.01H466.73C464.34 149.465 462.759 145.955 461.987 141.482C461.216 137.009 460.252 128.603 459.095 116.263C457.707 98.2163 448.259 87.4576 430.753 83.987C440.547 82.9073 448.645 79.1669 455.046 72.7656C461.448 66.3644 464.648 57.7266 464.648 46.8523C464.648 33.0472 459.905 22.25 450.419 14.4606C440.933 6.67115 426.935 2.77643 408.425 2.77643H347.807V152.01H367.936ZM510.228 2.77643H489.636V152.01H510.228V2.77643ZM702.264 152.01H722.856V83.5243H808.579V152.01H829.286V2.77643H808.579V66.75H722.856V2.77643H702.264V152.01ZM923.338 152.01H902.977V19.7821H848.721V2.77643H978.519V19.7821H923.338V152.01ZM1018.31 152.01V96.3653H1052.21C1070.72 96.3653 1085.03 92.2007 1095.13 83.8714C1105.23 75.465 1110.28 63.935 1110.28 49.2817C1110.28 34.6283 1105.19 23.2141 1095.01 15.039C1084.83 6.86396 1070.57 2.77643 1052.21 2.77643H997.954V152.01H1018.31ZM1051.75 79.4753H1018.31V19.5507H1051.75C1077.51 19.5507 1090.39 29.5381 1090.39 49.513C1090.39 69.4879 1077.51 79.4753 1051.75 79.4753ZM1249.92 77.393C1249.92 59.0377 1245.13 44.4615 1235.57 33.6642C1225.93 22.867 1213.09 17.4684 1197.05 17.4684C1181.01 17.4684 1168.16 22.9056 1158.52 33.7799C1148.88 44.6543 1144.06 59.192 1144.06 77.393C1144.06 95.5941 1148.88 110.132 1158.52 121.006C1168.16 131.88 1181.04 137.318 1197.16 137.318C1213.28 137.318 1226.12 131.919 1235.69 121.122C1245.25 110.325 1249.99 95.7483 1249.92 77.393ZM1250.61 21.5173C1264.41 35.8622 1271.32 54.4875 1271.32 77.393C1271.32 100.299 1264.38 118.924 1250.49 133.269C1236.61 147.614 1218.8 154.786 1197.05 154.786C1175.3 154.786 1157.52 147.614 1143.72 133.269C1129.91 118.924 1123.01 100.299 1123.01 77.393C1123.01 54.4875 1129.91 35.8622 1143.72 21.5173C1157.52 7.17245 1175.34 0 1197.16 0C1218.99 0 1236.8 7.17245 1250.61 21.5173ZM1313.77 2.77643H1293.18V152.01H1313.77V2.77643ZM1445.77 2.77643H1464.97V152.01H1448.55L1361.9 32.1603V152.01H1342.69V2.77643H1363.98L1445.77 116.957V2.77643ZM1538.55 152.01H1558.91V19.7821H1614.09V2.77643H1484.29V19.7821H1538.55V152.01ZM1641.35 2.66187C1633.33 2.66187 1626.71 8.85107 1626.71 17.3879C1626.71 25.9247 1633.33 32.1139 1641.35 32.1139C1649.38 32.1139 1656 25.9247 1656 17.3879C1656 8.85107 1649.39 2.66187 1641.35 2.66187ZM1641.35 29.6122C1634.65 29.6122 1629.39 24.5019 1629.39 17.3998C1629.39 10.2976 1634.67 5.1755 1641.35 5.1755C1648.04 5.1755 1653.32 10.2857 1653.32 17.3879C1653.32 24.4901 1648.04 29.6003 1641.35 29.6003V29.6122ZM1644.61 18.0667C1646.53 17.9008 1648.04 16.478 1648.04 14.2133C1648.04 11.3677 1646.11 9.52992 1642.26 9.52992H1635.33V24.8488H1638.34V19.1576H1641.85C1643.6 19.1576 1644.44 19.9164 1644.44 21.6712C1644.61 23.343 1644.78 24.4338 1645.11 24.8488H1648.28C1647.7 24.2678 1647.62 23.509 1647.54 21.2562C1647.37 19.5014 1646.36 18.4106 1644.61 18.0786V18.0667ZM1641.76 16.8099H1638.34V11.9487H1641.76C1644.03 11.9487 1645.02 12.8735 1645.02 14.3793C1645.02 16.0511 1644.02 16.8099 1641.76 16.8099Z" fill="#212121"/>
<path fill-rule="evenodd" clip-rule="evenodd" d="M201.579 40.8457L312.339 152.202L211.808 152.164L100.686 40.8457H201.579ZM62.7724 201.016L0 263.57L100.16 263.551L212.035 152.213H179.086C135.118 152.213 93.7344 169.782 62.7724 201.016Z" fill="#FF555F"/>
<path d="M380.548 237.271V254.385C380.548 256.372 381.525 257.365 383.479 257.365C384.697 257.365 385.801 257.067 386.792 256.471V260.388C385.292 261.892 383.451 262.644 381.271 262.644C379.09 262.644 377.363 261.963 376.088 260.601C374.814 259.238 374.064 257.422 373.837 255.151C372.789 257.422 371.005 259.281 368.485 260.728C365.965 262.176 363.02 262.9 359.65 262.9C356.309 262.9 353.534 261.963 351.325 260.09C349.116 258.16 348.012 255.549 348.012 252.256C348.012 248.964 349.3 246.396 351.877 244.551C354.454 242.706 358.263 241.301 363.303 240.336L373.582 238.25V236.76C373.582 234.149 372.846 232.091 371.374 230.587C369.901 229.083 367.848 228.331 365.215 228.331C360.117 228.331 356.932 230.885 355.657 235.994L349.201 235.1C349.966 231.382 351.75 228.387 354.553 226.117C357.356 223.846 361.066 222.711 365.682 222.711C370.269 222.711 373.894 223.946 376.556 226.415C379.218 228.884 380.548 232.503 380.548 237.271ZM373.582 244.891V243.061L365.045 244.891C361.562 245.658 359.056 246.495 357.526 247.403C355.997 248.311 355.233 249.73 355.233 251.66C355.233 253.534 355.799 254.995 356.932 256.045C358.064 257.096 359.664 257.621 361.732 257.621C365.158 257.621 367.99 256.443 370.227 254.087C372.464 251.731 373.582 248.666 373.582 244.891Z" fill="#212121"/>
<path d="M698.624 242.89C698.624 236.817 700.436 231.935 704.061 228.245C707.657 224.556 712.231 222.711 717.781 222.711C723.331 222.711 727.664 224.286 730.779 227.437C733.894 230.587 735.649 234.575 736.046 239.399L729.717 239.825C729.433 236.391 728.272 233.652 726.234 231.609C724.195 229.594 721.42 228.586 717.908 228.586C714.397 228.586 711.537 229.877 709.328 232.46C707.119 235.043 706.015 238.52 706.015 242.89C706.015 247.261 707.119 250.724 709.328 253.278C711.537 255.833 714.397 257.124 717.908 257.152C721.42 257.181 724.195 256.145 726.234 254.045C728.272 251.944 729.433 249.149 729.717 245.658L736.046 246.254C735.649 251.135 733.894 255.137 730.779 258.259C727.664 261.381 723.331 262.942 717.781 262.942C712.231 262.942 707.643 261.112 704.019 257.45C700.422 253.789 698.624 248.936 698.624 242.89Z" fill="#212121"/>
<path d="M774.572 228.416C778.253 232.219 780.093 237.044 780.093 242.89C780.093 248.737 778.253 253.534 774.572 257.28C770.89 261.026 766.232 262.9 760.597 262.9C754.962 262.9 750.332 261.026 746.707 257.28C743.082 253.534 741.27 248.709 741.27 242.805C741.27 236.902 743.097 232.091 746.75 228.373C750.403 224.598 755.032 222.711 760.639 222.711C766.246 222.711 770.89 224.613 774.572 228.416ZM751.804 232.375C749.709 235.014 748.661 238.52 748.661 242.89C748.661 247.261 749.709 250.752 751.804 253.363C753.9 255.975 756.831 257.308 760.597 257.365C764.363 257.365 767.322 256.031 769.474 253.363C771.626 250.695 772.703 247.176 772.703 242.805C772.703 238.491 771.641 235.014 769.517 232.375C767.393 229.735 764.434 228.416 760.639 228.416C756.845 228.416 753.9 229.735 751.804 232.375Z" fill="#212121"/>
<path d="M845.507 238.25V261.878H838.286V238.846C838.286 231.921 835.468 228.472 829.833 228.501C827.058 228.501 824.736 229.551 822.867 231.651C820.998 233.751 820.078 236.533 820.106 239.996V261.878H812.885V238.846C812.885 231.921 810.067 228.472 804.432 228.501C801.714 228.501 799.42 229.551 797.551 231.651C795.682 233.751 794.762 236.533 794.79 239.996V261.878H787.569V223.775H794.79V230.587C795.725 228.203 797.254 226.301 799.378 224.882C801.53 223.463 804.022 222.739 806.853 222.711C813.282 222.711 817.43 225.478 819.299 231.013C820.347 228.572 822.003 226.585 824.269 225.052C826.534 223.52 829.139 222.739 832.084 222.711C836.785 222.711 840.197 224.13 842.321 226.968C844.445 229.806 845.507 233.567 845.507 238.25Z" fill="#212121"/>
<path d="M862.242 276.523H855.021V223.775H862.242V231.779C863.12 229.225 864.763 227.082 867.17 225.35C869.605 223.619 872.507 222.739 875.877 222.711C881.371 222.711 885.647 224.613 888.705 228.416C891.763 232.219 893.292 237.044 893.292 242.89C893.292 248.737 891.749 253.534 888.663 257.28C885.576 261.026 881.314 262.914 875.877 262.942C872.536 262.914 869.647 262.048 867.212 260.345C864.777 258.642 863.12 256.514 862.242 253.959V276.523ZM862.072 241.741V243.912C862.072 247.971 863.219 251.192 865.513 253.576C867.778 255.96 870.723 257.152 874.348 257.152C877.973 257.152 880.79 255.875 882.801 253.321C884.811 250.795 885.817 247.318 885.817 242.89C885.817 238.463 884.811 234.972 882.801 232.418C880.79 229.863 877.973 228.586 874.348 228.586C870.723 228.586 867.778 229.764 865.513 232.12C863.248 234.475 862.101 237.682 862.072 241.741Z" fill="#212121"/>
<path d="M931.436 237.271V254.385C931.436 256.372 932.413 257.365 934.367 257.365C935.585 257.365 936.689 257.067 937.68 256.471V260.388C936.179 261.892 934.339 262.644 932.158 262.644C929.978 262.644 928.25 261.963 926.976 260.601C925.702 259.238 924.951 257.422 924.725 255.151C923.677 257.422 921.893 259.281 919.373 260.728C916.853 262.176 913.908 262.9 910.538 262.9C907.196 262.9 904.421 261.963 902.212 260.09C900.004 258.16 898.899 255.549 898.899 252.256C898.899 248.964 900.188 246.396 902.765 244.551C905.342 242.706 909.15 241.301 914.191 240.336L924.47 238.25V236.76C924.47 234.149 923.734 232.091 922.261 230.587C920.789 229.083 918.736 228.331 916.102 228.331C911.005 228.331 907.819 230.885 906.545 235.994L900.089 235.1C900.853 231.382 902.637 228.387 905.441 226.117C908.244 223.846 911.954 222.711 916.569 222.711C921.157 222.711 924.781 223.946 927.443 226.415C930.105 228.884 931.436 232.503 931.436 237.271ZM924.47 244.891V243.061L915.932 244.891C912.449 245.658 909.943 246.495 908.414 247.403C906.885 248.311 906.12 249.73 906.12 251.66C906.12 253.534 906.687 254.995 907.819 256.045C908.952 257.096 910.552 257.621 912.619 257.621C916.046 257.621 918.877 256.443 921.114 254.087C923.351 251.731 924.47 248.666 924.47 244.891Z" fill="#212121"/>
<path d="M950.593 239.996V261.878H943.372V223.775H950.593V230.587C951.527 228.26 953.141 226.372 955.435 224.925C957.757 223.477 960.348 222.739 963.208 222.711C967.966 222.711 971.477 224.13 973.742 226.968C976.008 229.806 977.126 233.567 977.098 238.25V261.878H969.877V238.846C969.877 235.582 969.112 233.042 967.583 231.226C966.082 229.409 963.86 228.501 960.915 228.501C957.97 228.501 955.506 229.551 953.524 231.651C951.57 233.78 950.593 236.561 950.593 239.996Z" fill="#212121"/>
<path d="M998.548 276.523H991.497L997.656 261.793L981.643 223.775H989.246L1001.31 253.065H1001.65L1013.33 223.775H1020.47L998.548 276.523Z" fill="#212121"/>
<path d="M426.177 254.155C431.899 254.155 436.651 249.077 436.651 242.704C436.651 236.331 431.899 231.253 426.177 231.253C420.455 231.253 415.783 236.331 415.783 242.704C415.783 249.077 420.539 254.155 426.177 254.155ZM416.991 263.268C418.681 266.656 422.069 268.994 425.936 268.994C431.577 268.994 436.092 264.073 436.092 258.029V257.623L435.931 257.543C432.788 260.689 428.756 262.625 424.245 262.625C414.576 262.625 406.758 253.672 406.758 242.704C406.758 231.736 414.576 222.787 424.245 222.787C428.756 222.787 432.788 224.722 435.931 227.946L436.092 227.865V223.833H445.117V258.029C445.117 268.833 437.142 277.544 426.342 277.544C419.091 277.544 412.805 273.673 409.421 267.787L416.994 263.268H416.991Z" fill="#212121"/>
<path d="M477.67 237.462L477.751 237.301C475.738 233.591 472.193 231.089 468.081 231.089C463.969 231.089 460.504 233.427 458.331 237.301L458.412 237.462H477.67ZM476.624 250.446L482.905 256.654C479.28 260.364 474.206 262.621 468.645 262.621C457.523 262.621 448.658 253.749 448.658 242.701C448.658 231.652 457.281 222.78 468.081 222.78C478.881 222.78 487.42 231.652 487.42 242.701C487.42 244.475 487.259 244.958 487.259 244.958H457.684C457.684 249.154 462.597 254.071 468.238 254.071C471.542 254.071 474.443 252.619 476.62 250.442" fill="#212121"/>
<path d="M500.242 242.704V261.574H491.217V223.833H500.242V228.428L500.403 228.509C503.465 224.719 507.574 222.783 511.847 222.783C527.963 222.783 528.365 237.461 528.365 241.976V261.571H519.343V242.7C519.343 238.185 519.263 231.249 509.915 231.249C504.596 231.249 500.242 236.327 500.242 242.7" fill="#212121"/>
<path d="M551.718 231.253C545.916 231.253 541.244 236.334 541.244 242.623C541.244 248.912 545.919 254.074 551.718 254.074C557.517 254.074 562.116 248.996 562.116 242.623C562.116 236.25 557.363 231.253 551.718 231.253ZM553.653 262.624C549.062 262.624 545.114 260.769 541.888 257.466L541.727 257.546V276.497H532.701V223.833H541.727V227.784L541.888 227.865C545.111 224.719 549.058 222.783 553.653 222.783C563.323 222.783 571.141 231.655 571.141 242.704C571.141 253.752 563.323 262.624 553.653 262.624Z" fill="#212121"/>
<path d="M593.619 254.075C599.34 254.075 604.016 249.074 604.016 242.704C604.016 236.335 599.344 231.253 593.619 231.253C587.893 231.253 583.221 236.335 583.221 242.704C583.221 249.074 587.977 254.075 593.619 254.075ZM591.687 222.784C596.198 222.784 600.226 224.719 603.368 227.946L603.529 227.866V223.834H612.555V261.575H603.529V257.704L603.368 257.543C600.226 260.686 596.198 262.621 591.687 262.621C582.017 262.621 574.199 253.749 574.199 242.701C574.199 231.652 582.017 222.78 591.687 222.78" fill="#212121"/>
<path d="M650.259 256.654C646.633 260.363 641.555 262.621 635.998 262.621C624.876 262.621 616.012 253.752 616.012 242.704C616.012 231.655 624.876 222.783 635.998 222.783C641.559 222.783 646.637 225.04 650.259 228.75L643.893 234.717C641.881 232.54 639.141 231.249 635.998 231.249C629.874 231.249 625.037 236.411 625.037 242.7C625.037 248.989 629.874 254.071 635.998 254.071C639.141 254.071 642.042 252.699 644.058 250.522L650.263 256.65L650.259 256.654Z" fill="#212121"/>
<path d="M668.41 232.545V261.575H659.385V232.545H653.129V223.834H659.385V206.898H668.41V223.834H674.666V232.545H668.41Z" fill="#212121"/>
</svg>
