<svg xmlns="http://www.w3.org/2000/svg" width="778" height="289" viewBox="0 0 778 289" fill="none"><path d="M105.46 74.48H48.55C37.17 74.48 32.05 65.76 32.05 59.58V46.35C32.05 36.8 38.48 31.1 49.25 31.1H121.46C128.59 31.45 134.65 25.89 134.99 18.68C134.99 18.49 135 18.3 135 18.11V14.18C135 6.77 129.02 1.19 121.1 1.19H43.25C15.41 1.18 -1.48995e-05 24.93 -1.48995e-05 41.35V63.52C-0.260015 84.8 16.55 102.29 37.58 102.61H95.56C106.62 102.61 107.81 111.28 107.81 115V129.3C107.81 131.08 107.47 146.7 95.56 146.7H15.57C7.71998 146.7 2.01999 152.16 2.01999 159.69V163.61C2.01999 171.14 7.71998 176.6 15.57 176.6H100.52C124.43 176.6 139.87 159.71 139.87 133.57V109.61C139.87 85.33 122.59 74.46 105.46 74.46" fill="#BA2733"></path><path d="M432.74 3.57L427.72 1.4C424.23 -0.29 420.2 -0.44 416.6 0.99C413.43 2.57 411.06 5.43 410.07 8.86L373.3 110.07C368.77 122.79 365.28 134.15 363.17 141.4C361.06 134.15 357.57 122.79 353.03 110.05L316.28 8.9C315.29 5.46 312.92 2.59 309.75 0.99C306.12 -0.45 302.07 -0.29 298.57 1.43L293.69 3.55C286.23 6.57 283.28 13.22 286.03 20.98L339.41 160.79C342.79 169.53 351.31 176.63 358.41 176.63H367.95C375.05 176.63 383.58 169.52 386.95 160.79L440.36 20.9C443.08 13.22 440.13 6.57 432.75 3.58" fill="#BA2733"></path><path d="M252.21 15.84C248.83 7.1 240.31 0 233.21 0H223.67C216.57 0 208.04 7.1 204.67 15.84L151.27 155.73C148.55 163.42 151.5 170.07 158.89 173.06L163.91 175.23C165.95 176.1 168.14 176.58 170.36 176.63C171.97 176.64 173.56 176.31 175.03 175.64C178.2 174.06 180.57 171.2 181.56 167.77L218.33 66.56C222.86 53.84 226.35 42.48 228.46 35.23C230.57 42.48 234.06 53.84 238.6 66.58L275.35 167.73C276.34 171.18 278.71 174.04 281.88 175.64C285.51 177.08 289.56 176.92 293.07 175.2L297.95 173.08C305.41 170.06 308.36 163.41 305.61 155.65L252.21 15.84Z" fill="#BA2733"></path><path d="M605.87 3.57L600.85 1.4C597.36 -0.3 593.33 -0.45 589.73 0.99C586.56 2.57 584.19 5.43 583.2 8.86L546.43 110.07C541.9 122.79 538.41 134.15 536.3 141.4C534.19 134.15 530.7 122.79 526.16 110.05L489.41 8.9C488.42 5.46 486.05 2.59 482.88 0.99C479.25 -0.45 475.2 -0.29 471.69 1.43L466.81 3.55C459.35 6.57 456.4 13.22 459.15 20.98L512.53 160.79C515.91 169.53 524.43 176.63 531.53 176.63H541.07C548.17 176.63 556.7 169.52 560.07 160.79L613.48 20.9C616.2 13.22 613.26 6.57 605.87 3.58" fill="#BA2733"></path><path d="M772.37 5.63L768.13 2.77C765.78 1.1 763 0.18 760.13 0.13C755.95 0.15 752.03 2.21 749.61 5.66L706.41 66.29L663.51 5.6C660.96 2.13 656.94 0.1 652.67 0.12C649.8 0.17 647.02 1.09 644.67 2.76L640.43 5.63C636.79 8.08 634.69 12.28 634.88 16.69C634.73 19.63 635.56 22.53 637.25 24.93L690.38 98.83V162.94C690.3 170.43 696.24 176.56 703.64 176.65H708.88C716.28 176.73 722.35 170.73 722.43 163.24C722.43 163.24 722.43 163.24 722.43 163.23V98.83L775.56 24.93C777.24 22.53 778.08 19.63 777.92 16.69C778.11 12.28 776 8.08 772.37 5.63Z" fill="#BA2733"></path><path d="M141.55 280.8L118.73 225.31C117.8 222.3 115.09 220.22 111.97 220.13H106.98C103.91 220.22 101.23 222.26 100.3 225.22L77.46 280.75C77.09 281.52 76.88 282.35 76.81 283.21V283.32C76.88 285.24 78.14 286.89 79.96 287.45L81.85 288.26C82.44 288.5 83.08 288.62 83.72 288.63C83.84 288.63 83.95 288.63 84.06 288.62C85.94 288.53 87.57 287.26 88.13 285.44L95.15 268.43H123.81L130.83 285.44C131.39 287.25 133 288.53 134.88 288.62C135.65 288.67 136.42 288.55 137.14 288.26L139.01 287.46C140.83 286.91 142.11 285.25 142.18 283.33V283.21C142.12 282.38 141.91 281.56 141.56 280.8M119.12 257.05H99.83L109.47 233.45L119.12 257.05Z" fill="#BA2733"></path><path d="M219.47 224.64C219.34 222.05 217.17 220.04 214.61 220.14H212.13C210.02 220.44 208.18 221.74 207.18 223.63L189.42 248.79L171.82 223.68C170.78 221.8 168.96 220.5 166.86 220.15H166.78L164.26 220.14H163.79C161.22 220.27 159.24 222.46 159.34 225.06V283.18C159.39 286 161.68 288.25 164.47 288.21H166.4C169.23 288.2 171.53 285.88 171.54 283.01V242.19L183.49 259.11C184.53 261.09 186.5 262.4 188.71 262.59H190.08C192.3 262.41 194.27 261.09 195.31 259.09L207.24 242.19V283.02C207.26 285.89 209.55 288.2 212.38 288.22H214.48C217.27 288.17 219.49 285.84 219.45 283.02V225.12C219.45 224.96 219.45 224.81 219.45 224.65" fill="#BA2733"></path><path d="M287.38 278C286.43 277.16 285.19 276.74 283.93 276.83H248.85V260.08H279.16C279.29 260.08 279.43 260.09 279.57 260.09C282.25 260.07 284.4 257.86 284.39 255.16V253.63C284.39 253.49 284.39 253.36 284.38 253.22C284.28 251.92 283.68 250.72 282.7 249.87C281.75 249.03 280.51 248.61 279.25 248.7H248.87V231.52H281.93C282.06 231.52 282.22 231.53 282.34 231.53C285.01 231.51 287.17 229.3 287.16 226.6V225.07C287.16 224.93 287.16 224.8 287.15 224.66C287.05 223.36 286.45 222.16 285.47 221.31C284.52 220.47 283.28 220.05 282.02 220.14H241.4C238.75 220.18 236.64 222.39 236.67 225.07V283.51C236.73 286.12 238.84 288.21 241.42 288.22H283.91C284.02 288.22 284.14 288.23 284.25 288.23H284.27C286.95 288.21 289.1 286 289.08 283.29V281.77C289.08 281.63 289.08 281.5 289.07 281.36C288.98 280.06 288.37 278.85 287.39 278.01" fill="#BA2733"></path><path d="M356.42 251.97C353.94 249.7 350.67 248.52 347.33 248.7H324.97C321.6 248.81 318.76 246.17 318.59 242.75V237.59C318.59 233.78 321.15 231.51 325.43 231.51H350.57C353.27 231.51 355.46 229.31 355.49 226.58V225.02C355.49 224.93 355.49 224.83 355.48 224.74C355.38 223.41 354.76 222.18 353.75 221.32C352.77 220.47 351.5 220.04 350.21 220.13H323.1C314.36 220.06 307.06 226.83 306.38 235.64V244.27C306.33 252.46 312.78 259.18 320.87 259.37H343.53C343.76 259.35 343.99 259.35 344.22 259.37C345.41 259.46 346.51 260.03 347.28 260.95C348.07 261.89 348.46 263.11 348.35 264.34V269.92C348.35 270.63 348.21 276.84 343.45 276.84H311.46C311.32 276.84 311.18 276.83 311.05 276.83C308.38 276.85 306.23 279.06 306.24 281.76V283.28C306.24 283.42 306.24 283.56 306.25 283.69C306.44 286.22 308.51 288.19 311.03 288.22C311.15 288.22 311.26 288.22 311.38 288.21H345.39C349.52 288.36 353.53 286.74 356.41 283.74C359.28 280.38 360.77 276.03 360.56 271.59V262.32C360.59 261.82 360.59 261.32 360.56 260.82C360.39 257.42 358.89 254.24 356.38 251.97" fill="#BA2733"></path><path d="M540.86 257.97C546.66 255.31 550.24 249.32 549.88 242.89V236.35C549.88 228.31 545.24 219.72 532.19 219.72L503.46 220.13C503.32 220.12 503.18 220.12 503.03 220.12C500.6 220.16 498.66 222.18 498.69 224.64V283.18C498.74 286 501.04 288.25 503.83 288.21H505.76C508.59 288.2 510.89 285.88 510.9 283.01V260.09H528.95L541.61 285.83L541.68 285.96C542.28 287.15 543.33 288.04 544.58 288.44C545.07 288.6 545.58 288.68 546.09 288.68C546.86 288.68 547.62 288.5 548.31 288.14L549.82 287.45L549.89 287.42C551.53 286.51 552.54 284.75 552.49 282.85C552.45 281.98 552.23 281.13 551.83 280.36L540.85 257.99L540.86 257.97ZM537.67 238.14V241.72C537.4 245.59 534.26 248.62 530.42 248.7H510.92V238.05C510.98 234.38 513.97 231.45 517.6 231.52C517.6 231.52 517.6 231.52 517.61 231.52H531.36C534.9 231.59 537.72 234.55 537.66 238.13" fill="#BA2733"></path><path d="M747.89 219.73L719.12 220.14C717.35 220.14 714.39 220.97 714.39 226.42V285.04L714.51 285.27C715.46 287.08 717.33 288.21 719.36 288.21H721.46C724.29 288.2 726.59 285.88 726.6 283.01V261.85H745.28C747.06 261.83 748.84 261.69 750.6 261.41C752.25 261.15 753.88 260.77 755.48 260.28L755.63 260.22C762.5 256.83 765.56 252.04 765.56 244.68V236.36C765.56 228.32 760.92 219.73 747.87 219.73M726.61 238.05C726.67 234.38 729.66 231.46 733.29 231.52C733.29 231.52 733.3 231.52 733.31 231.52H747.06C750.6 231.59 753.42 234.55 753.36 238.13V243.48C753.09 247.35 749.95 250.38 746.11 250.47H726.61V238.05Z" fill="#BA2733"></path><path d="M607.87 220.14H586.54C577.47 220.07 569.99 227.32 569.68 236.49V271.6C569.66 280.73 576.95 288.17 585.98 288.23H608.44C617.43 288.09 624.67 280.71 624.73 271.61V236.47C624.42 227.31 616.95 220.07 607.89 220.16M588.32 276.84H588.2C584.65 276.77 581.83 273.81 581.89 270.22C581.89 270.22 581.89 270.21 581.89 270.2V238.11C581.89 234.46 584.81 231.5 588.42 231.5H605.93C609.54 231.55 612.45 234.49 612.5 238.14V270.21C612.5 273.86 609.58 276.82 605.97 276.82H588.31L588.32 276.84Z" fill="#BA2733"></path><path d="M692.06 220.14H689.97C687.18 220.19 684.95 222.52 684.99 225.34V269.5C684.97 273.54 681.74 276.82 677.74 276.84H661.36C657.36 276.82 654.12 273.55 654.1 269.5V225.34C654.08 222.48 651.79 220.16 648.96 220.14H646.87C644.08 220.19 641.85 222.52 641.89 225.34V271.16C641.89 281.28 649.78 288.62 660.67 288.62L693.3 288.21H693.46C694.51 288.12 695.49 287.61 696.19 286.8C696.9 285.99 697.26 284.93 697.2 283.85V225.33C697.18 222.46 694.89 220.15 692.06 220.13" fill="#BA2733"></path><path d="M54.5 248.48H33.22C30.4 248.48 28.12 250.79 28.12 253.64V254.67C28.12 257.52 30.41 259.83 33.22 259.83H47.39V269.48C47.37 273.52 44.14 276.79 40.14 276.81H23.77C19.77 276.79 16.54 273.52 16.51 269.47V238.24C16.39 234.64 19.18 231.62 22.75 231.5C22.75 231.5 22.75 231.5 22.76 231.5H52.27C54.96 231.5 57.13 229.3 57.14 226.58V225.33C57.14 222.46 54.83 220.13 52 220.13H20.88C11.72 220.15 4.30999 227.66 4.30999 236.93V271.16C4.30999 281.93 11.5 288.62 23.09 288.62H25.15C29.02 288.62 35.15 288.56 43.39 288.45C52.38 288.28 59.58 280.88 59.62 271.79V253.64C59.62 250.79 57.33 248.48 54.52 248.48" fill="#BA2733"></path><path d="M476.41 248.48H455.13C452.31 248.48 450.03 250.79 450.03 253.64V254.67C450.03 257.52 452.32 259.83 455.13 259.83H469.3V269.48C469.28 273.52 466.05 276.79 462.05 276.82H445.66C441.66 276.8 438.43 273.53 438.41 269.48V238.25C438.29 234.65 441.09 231.63 444.65 231.51H474.16C476.85 231.51 479.02 229.31 479.03 226.59V225.34C479.03 222.47 476.72 220.14 473.89 220.14H442.77C433.59 220.17 426.17 227.73 426.2 237.02C426.2 237.02 426.2 237.02 426.2 237.03V271.17C426.2 281.94 433.39 288.63 444.98 288.63H447.04C450.9 288.63 457.04 288.57 465.28 288.46C474.27 288.3 481.48 280.89 481.52 271.8V253.64C481.52 250.79 479.23 248.48 476.42 248.48" fill="#BA2733"></path></svg>